<svg width="75" height="35" viewBox="0 0 75 35" fill="none" xmlns="http://www.w3.org/2000/svg">
    <path fill-rule="evenodd" clip-rule="evenodd" d="M12.1875 21.3665C12.1649 21.5115 12.1097 21.6494 12.0262 21.77C11.9428 21.8906 11.833 21.9907 11.7054 22.0629C11.4482 22.229 11.2232 22.3121 10.9955 22.3951C10.5107 22.5625 10.0004 22.7299 9.46071 22.9241C8.89152 23.1183 8.38125 23.3125 7.92589 23.4531C7.35804 23.6473 6.8183 23.8147 6.30536 24.0089C5.91944 24.1741 5.55695 24.3893 5.22723 24.6491C4.92059 24.9269 4.65297 25.245 4.4317 25.5946C4.20402 25.983 4.06071 26.4839 4.06071 27.0679C4.06071 28.2371 4.34464 29.1263 4.91384 29.6821C5.4817 30.2674 6.53438 30.5446 8.09464 30.5446C9.68571 30.5446 10.7652 30.2393 11.3357 29.6272C11.9022 29.0152 12.1862 28.154 12.1862 27.0424V21.3665H12.1875ZM8.09598 9.04509C10.8817 9.04509 12.9268 9.57411 14.2326 10.6589C15.5397 11.717 16.1933 13.0777 16.1933 14.6902V28.4312C16.1933 28.9871 16.0808 29.5991 15.8826 30.2661C15.6817 30.9357 15.2853 31.5464 14.6598 32.1009C14.0638 32.6594 13.2402 33.1321 12.1888 33.4937C11.1375 33.8554 9.77411 34.0496 8.09732 34.0496C6.42321 34.0496 5.05714 33.8554 4.00714 33.4937C2.95714 33.1321 2.13214 32.6594 1.53616 32.1009C0.981737 31.6013 0.561737 30.9703 0.314732 30.2661C0.113839 29.6004 0 28.9884 0 28.4326V26.2362C0 25.067 0.312054 23.9821 0.9375 23.0353C1.56295 22.0629 2.44286 21.396 3.57991 20.9781C4.14777 20.7839 4.80134 20.5897 5.53929 20.3393C6.27857 20.0875 6.95893 19.8371 7.64196 19.6161C8.325 19.3924 8.92098 19.1687 9.43125 18.9732C9.73918 18.85 10.0519 18.7392 10.3688 18.6411L10.8804 18.3906C11.0812 18.2795 11.2781 18.1121 11.4777 17.8897C11.6759 17.6688 11.846 17.4183 11.9893 17.1397C12.1407 16.8381 12.2187 16.5049 12.217 16.1674V15.2768C12.2191 14.9504 12.1505 14.6274 12.0161 14.3299C11.9036 13.9951 11.6759 13.6897 11.3638 13.4125C11.0518 13.1339 10.6246 12.9116 10.1143 12.7429C9.60268 12.5781 8.92232 12.4937 8.15357 12.4937C6.5625 12.4937 5.51116 12.8018 4.9433 13.4393C4.46116 13.9964 4.17723 14.6915 4.12098 15.4696C4.12098 15.6371 3.97902 15.7482 3.80759 15.7482L0.342857 15.8045C0.260555 15.8048 0.181444 15.7727 0.122747 15.715C0.0640508 15.6573 0.0305232 15.5787 0.0294643 15.4964V14.6929C0.0294643 13.9121 0.172768 13.1888 0.484821 12.4937C0.798214 11.7973 1.2817 11.2147 1.93393 10.7125C2.5875 10.2129 3.44063 9.79643 4.4625 9.51786C5.45759 9.18304 6.67902 9.04509 8.09866 9.04509H8.09598ZM70.9085 21.3665C70.8859 21.5115 70.8307 21.6494 70.7472 21.77C70.6637 21.8906 70.554 21.9907 70.4263 22.0629C70.1719 22.229 69.9442 22.3121 69.7165 22.3951C69.2344 22.5625 68.7214 22.7299 68.1817 22.9241C67.6125 23.1183 67.1009 23.3125 66.6469 23.4531C66.0777 23.6473 65.538 23.8147 65.0263 24.0089C64.64 24.174 64.277 24.3892 63.9469 24.6491C63.6407 24.927 63.3735 25.2451 63.1527 25.5946C62.925 25.983 62.783 26.4839 62.783 27.0679C62.783 28.2371 63.0643 29.1263 63.6335 29.6821C64.2013 30.2674 65.254 30.5446 66.8156 30.5446C68.4094 30.5446 69.4875 30.2393 70.0567 29.6272C70.6232 29.0152 70.9071 28.154 70.9071 27.0424L70.9085 21.3665ZM66.8183 9.04509C69.604 9.04509 71.6491 9.57411 72.9563 10.6589C74.2621 11.717 74.9156 13.0777 74.9156 14.6902V28.4312C74.9156 28.9871 74.8031 29.5991 74.6036 30.2661C74.4054 30.9357 74.0076 31.5464 73.3821 32.1009C72.7862 32.6594 71.9625 33.1321 70.9112 33.4937C69.8612 33.8554 68.4964 34.0496 66.821 34.0496C65.1469 34.0496 63.7808 33.8554 62.7308 33.4937C61.6808 33.1321 60.8558 32.6594 60.2598 32.1009C59.7063 31.601 59.2873 30.9701 59.0411 30.2661C58.8402 29.5991 58.7263 28.9871 58.7263 28.4312V26.2348C58.7263 25.0656 59.0397 23.9808 59.6638 23.0339C60.2893 22.0616 61.1705 21.3946 62.3063 20.9768C62.8741 20.7826 63.5277 20.5884 64.267 20.3379C65.0036 20.0862 65.6866 19.8357 66.3696 19.6147C67.0527 19.3911 67.6473 19.1674 68.1589 18.9719C68.4669 18.8487 68.7796 18.7379 69.0964 18.6397L69.608 18.3893C69.8062 18.2781 70.0058 18.1107 70.204 17.8884C70.4073 17.6624 70.5794 17.4101 70.7156 17.1384C70.867 16.8367 70.945 16.5036 70.9433 16.1661V15.2754C70.9454 14.949 70.8769 14.626 70.7424 14.3286C70.6299 13.9937 70.4036 13.6884 70.0902 13.4112C69.7781 13.1326 69.3536 12.9103 68.8406 12.7415C68.329 12.5768 67.6487 12.4924 66.8799 12.4924C65.2888 12.4924 64.2388 12.8004 63.6696 13.4379C63.1875 13.9951 62.9036 14.6902 62.846 15.4683C62.846 15.6357 62.7054 15.7469 62.5353 15.7469H59.0893C59.0079 15.7465 58.9299 15.7144 58.8718 15.6574C58.8138 15.6003 58.7803 15.5229 58.7786 15.4415V14.6339C58.7786 13.8571 58.9205 13.1339 59.2339 12.4375C59.546 11.7437 60.0281 11.1585 60.6804 10.6589C61.3366 10.158 62.1871 9.74018 63.2116 9.46295C64.1759 9.1817 65.3973 9.04509 66.8183 9.04509ZM54.6308 9.15625H56.9049C57.1031 9.15625 57.2451 9.35178 57.1888 9.54464L56.4214 12.4375C56.3946 12.5781 56.2513 12.6612 56.1375 12.6612H54.5464C53.6946 12.6612 53.0129 12.7723 52.4732 12.996C51.9603 13.217 51.5357 13.4674 51.2504 13.7728C50.9665 14.0808 50.7951 14.3848 50.7107 14.6915C50.6342 14.9913 50.596 15.2995 50.5969 15.6089V33.4937C50.5951 33.5758 50.5611 33.6539 50.5022 33.711C50.4433 33.7682 50.3642 33.7998 50.2821 33.7991H46.875C46.7934 33.7991 46.715 33.7672 46.6567 33.7101C46.5983 33.653 46.5647 33.5753 46.5629 33.4937V14.8013C46.5629 14.4692 46.6192 13.9683 46.7612 13.3281C46.875 12.6893 47.2165 12.0772 47.7563 11.4371C48.296 10.825 49.0915 10.2692 50.171 9.82455C51.2518 9.37723 52.729 9.15625 54.6308 9.15625ZM43.1531 27.8192V28.6536C43.1531 29.0152 43.0996 29.5161 42.9563 30.1562C42.8424 30.767 42.5009 31.4071 41.9612 32.0179C41.4214 32.6312 40.6259 33.1871 39.5464 33.6317C38.467 34.0777 36.9884 34.3013 35.0866 34.3013C33.1848 34.3013 31.7062 34.0777 30.6268 33.6317C29.5473 33.1871 28.7518 32.6594 28.2121 32.0192C27.6723 31.4085 27.3308 30.7683 27.217 30.1308C27.1045 29.4879 27.0201 29.0165 27.0201 28.6549V9.93571C27.0201 9.7683 27.1621 9.62768 27.3321 9.62768H30.7125C30.8839 9.62768 31.0259 9.7683 31.0259 9.93571V27.4576C31.0259 28.0415 31.1103 28.4594 31.196 28.7929C31.283 29.1277 31.4531 29.4598 31.7089 29.7384C31.9634 30.0438 32.3625 30.2942 32.9009 30.4884C33.4125 30.6839 34.1237 30.7964 35.0036 30.7964C35.9143 30.7964 36.6509 30.6839 37.192 30.4884C37.7317 30.2942 38.1295 30.0438 38.4134 29.7652C38.6946 29.4879 38.8955 29.1826 38.9799 28.8478C39.0656 28.5129 39.1808 28.2371 39.1808 27.4281V9.90893C39.1808 9.74286 39.3214 9.60357 39.4915 9.60357H42.8719C43.0406 9.60357 43.1826 9.74286 43.1826 9.91161V27.8219H43.1558L43.1531 27.8192ZM19.8884 0.22991H23.2701C23.4402 0.22991 23.5821 0.367856 23.5821 0.533928V33.6598C23.5811 33.7419 23.5477 33.8202 23.4893 33.8779C23.4309 33.9355 23.3522 33.9679 23.2701 33.9679H19.8884C19.8063 33.9679 19.7276 33.9355 19.6691 33.8779C19.6107 33.8202 19.5774 33.7419 19.5763 33.6598V0.533928C19.6031 0.367856 19.7183 0.22991 19.8884 0.22991Z" fill="white"/>
    </svg>
    