<svg xmlns="http://www.w3.org/2000/svg" xml:space="preserve" width="197mm" height="136.28296mm" version="1.1" style="shape-rendering:geometricPrecision; text-rendering:geometricPrecision; image-rendering:optimizeQuality; fill-rule:evenodd; clip-rule:evenodd" viewBox="0 0 19679.467 31304.988" xmlns:xlink="http://www.w3.org/1999/xlink" xmlns:xodm="http://www.corel.com/coreldraw/odm/2003"><defs><style type="text/css">.fil0 {fill:white}</style></defs><g id="Camada_x0020_1"><metadata id="CorelCorpID_0Corel-Layer"/><path class="fil0" d="m14734.1 15728.817 50.979 7190.009c0 730.001 -147.783 1376.64 -349.727 1893.903 -183.221 469.309 -561.381 1024.553 -954.634 1288.878 -1064 715.169 -2310.929 896.667 -3641.006 896.667 -974.01 0 -2085.443 -136.627 -2788.53 -423.467 -757.668 -309.123 -1393.729 -804.985 -1691.334 -1571.9 -80.019 -206.257 -163.903 -368.424 -221.769 -594.083 -247.338 -964.431 -132.3 -986.931 -223.953 -1816.747 -37.448 -339.034 167.796 -1254.744 353.418 -1645.654 233.706 -492.128 382.357 -623.878 646.422 -985.239 358.598 -490.725 967.89 -757.537 1426.112 -1021.27l271.95 -135.933c604.314 -263.081 928.66 -323.768 1493.63 -545.811 217.847 -85.605 368.308 -138.623 600.247 -215.518l3020.686 -1058.154c231.016 -77.025 383.037 -127.525 600.927 -214.838 204.564 -82.001 397.724 -137.871 571.019 -244.761l489.464 -326.33c147.581 -117.092 203.014 -275.742 299.662 -414.191 5.238 -7.494 18.448 -22.182 22.819 -28.144 4.385 -5.947 15.7 -18.304 23.585 -27.391zM0 6346.098v1937.732c110.436 73.986 169.719 152.992 356.875 152.992h4129.631c543.83 0 257.554 -439.037 630.606 -1561.973 255.671 -769.619 760.519 -1477.135 1428.66 -1885.61 724.893 -443.176 1826.573 -632.616 2733.137 -631.864 700.134 0.579 1376.062 -43.207 2010.344 79.976 876.946 170.312 1667.402 455.721 2310.032 1004.065 1305.607 1114.036 1134.815 2217.323 1134.815 3811.275 0 590.482 -409.011 1279.243 -733.894 1713.62 -405.742 542.482 -1410.658 1008.549 -2025.434 1237.713l-1847.959 650.324c-433.538 143.572 -805.448 292.599 -1225.036 457.5L5844.567 14384.474c-1049.76 350.045 -1944.359 560.716 -2887.677 1191.206l-471.912 343.867c-532.049 485.11 -780.992 690.439 -1190.049 1308.384L695.882 18311.553C406.841 18898.142 50.993 20132.352 50.993 20981.08v3569.508c0 980.97 406.552 2280.413 832.044 3094.267 220.163 421.138 544.003 752.531 863.053 1074.505l956.748 776.841c70.57 49.429 78.023 65.794 142.632 112.302 81.798 58.907 187.097 114.127 285.119 173.757 1031.645 627.699 2070.697 956.415 3246.145 1189.615 2707.409 537.128 5944.831 441.597 8503.892 -410.561 783.266 -260.823 1362.314 -559.588 2045.794 -1013.397 110.349 -73.291 187.488 -129.914 297.36 -212.507l811.539 -718.079c263.747 -263.183 488.726 -539.604 674.146 -855.516 587.355 -1000.621 970.016 -2228.783 970.016 -3670.176V6906.988c0 -1192.652 -421.428 -2361.199 -865.252 -3112.037 -185.998 -314.622 -572.349 -891.428 -828.789 -1159.777 -133.081 -139.259 -347.645 -370 -488.625 -480.147 -1051.527 -821.625 -1814.361 -1285.667 -3333.69 -1662.988C10770.02 -350.626 4563.789 -341.336 1848.09 2381.296c-724.836 726.672 -1172.481 1300.34 -1523.049 2352.125C180.5 5167.121 0.014 5804.122 0.014 6346.055z"/></g></svg>