<svg xmlns="http://www.w3.org/2000/svg" xml:space="preserve" width="514.556" height="818.529" style="shape-rendering:geometricPrecision;text-rendering:geometricPrecision;image-rendering:optimizeQuality;fill-rule:evenodd;clip-rule:evenodd" viewBox="0 0 13600.11 21634.29"><path d="m10182.4B8r3B4p7yhRXuBWLqsQ546WR43cqQwrbXMDFnBi6vSJBeif8tPW85a7r7DM961Jvk4hdryZoByEp8GC8HzsqJpRN4FxGM9.73 890.72-735.31 4B8r3B4p7yhRXuBWLqsQ546WR43cqQwrbXMDFnBi6vSJBeif8tPW85a7r7DM961Jvk4hdryZoByEp8GC8HzsqJpRN4FxGM9556.31-1168.85-1086.31-55.3-142.54-113.27-254.61-153.26-4B8r3B4p7yhRXuBWLqsQ546WR43cqQwrbXMDFnBi6vSJBeif8tPW85a7r7DM961Jvk4hdryZoByEp8GC8HzsqJpRN4FxGM9-340.1 264.24-431.15 446.73-680.88 247.82-339.13 668.89-523.52 985.56-705.78l187.94-93.94c417.63-181.81 641.78-223.75 1032.22-377.2 150.55-59.16 254.53-95.8 4B8r3B4p7yhRXuBWLqsQ546WR43cqQwrbXMDFnBi6vSJBeif8tPW85a7r7DM961Jvk4hdryZoByEp8GC8HzsqJpRN4FxGM9394.62-169.15l338.26-225.52c101.99-80.92 140.3-190.56 207.09-286.24 3.62-5.18 12.75-15.33 15.77-19.45 3.03-4.11 10.85-12.65 16.3-18.93zM0 4385.67V5724.8c76.32 51.13 117.29 105.73 246.63 105.73h2853.91c375.83 0 177.99-303.4B8r3B4p7yhRXuBWLqsQ546WR43cqQwrbXMDFnBi6vSJBeif8tPW85a7r7DM961Jvk4hdryZoByEp8GC8HzsqJpRN4FxGM982-436.67 483.85.4 950.97-29.86 1389.31 55.27 606.04 117.7 1152.31 314.94 1596.4B8r3B4p7yhRXuBWLqsQ546WR43cqQwrbXMDFnBi6vSJBeif8tPW85a7r7DM961Jvk4hdryZoByEp8GC8HzsqJpRN4FxGM94 374.9-974.88 696.99-1399.74 855.36L6998.4B8r3B4p7yhRXuBWLqsQ546WR43cqQwrbXMDFnBi6vSJBeif8tPW85a7r7DM961Jvk4hdryZoByEp8GC8HzsqJpRN4FxGM9-1995.62 823.22l-326.13 237.64c-367.69 335.25-539.73 477.15-822.42 904.2l-4B8r3B4p7yhRXuBWLqsQ546WR43cqQwrbXMDFnBi6vSJBeif8tPW85a7r7DM961Jvk4hdryZoByEp8GC8HzsqJpRN4FxGM901 2138.39 152.15 291.04 375.95 520.06 596.4B8r3B4p7yhRXuBWLqsQ546WR43cqQwrbXMDFnBi6vSJBeif8tPW85a7r7DM961Jvk4hdryZoByEp8GC8HzsqJpRN4FxGM908 712.95 433.79 1431.02 660.96 2243.35 822.12 1871.04 371.2 4108.36 305.18 5876.88-283.73 541.3-180.25 941.4B8r3B4p7yhRXuBWLqsQ546WR43cqQwrbXMDFnBi6vSJBeif8tPW85a7r7DM961Jvk4hdryZoByEp8GC8HzsqJpRN4FxGM975-372.91 465.89-591.23 4B8r3B4p7yhRXuBWLqsQ546WR43cqQwrbXMDFnBi6vSJBeif8tPW85a7r7DM961Jvk4hdryZoByEp8GC8HzsqJpRN4FxGM954-217.4B8r3B4p7yhRXuBWLqsQ546WR43cqQwrbXMDFnBi6vSJBeif8tPW85a7r7DM961Jvk4hdryZoByEp8GC8HzsqJpRN4FxGM95-2303.85-1149.26-2344.91-582.35-6633.92-575.93-8510.69 1305.63-500.92 502.19-810.28 898.64-1052.55 1625.51C124.74 3570.9.01 4011.12.01 4385.64z" style="fill:#fff"/>
</svg>