<?xml version="1.0" encoding="UTF-8"?>
<!DOCTYPE svg PUBLIC "-//W3C//DTD SVG 1.1//EN" "http://www.w3.org/Graphics/SVG/1.1/DTD/svg11.dtd">
<!-- Creator: CorelDRAW -->
<svg xmlns="http://www.w3.org/2000/svg" xml:space="preserve" width="136.143mm" height="216.569mm" version="1.1" style="shape-rendering:geometricPrecision; text-rendering:geometricPrecision; image-rendering:optimizeQuality; fill-rule:evenodd; clip-rule:evenodd"
viewBox="0 0 13600.11 21634.29"
 xmlns:xlink="http://www.w3.org/1999/xlink"
 xmlns:xodm="http://www.corel.com/coreldraw/odm/2003">
 <defs>
  <style type="text/css">
   <![CDATA[
    .fil0 {fill:white}
   ]]>
  </style>
 </defs>
 <g id="Camada_x0020_1">
  <metadata id="CorelCorpID_0Corel-Layer"/>
  <path class="fil0" d="M10182.46 10869.89l35.23 4968.88c0,504.49 -102.13,951.37 -241.69,1308.84 -126.62,324.33 -387.96,708.05 -659.73,890.72 -735.31,494.24 -1597.04,619.67 -2516.23,619.67 -673.12,0 -1441.21,-94.42 -1927.1,-292.65 -523.61,-213.63 -963.18,-556.31 -1168.85,-1086.31 -55.3,-142.54 -113.27,-254.61 -153.26,-410.56 -170.93,-666.5 -91.43,-682.05 -154.77,-1255.52 -25.88,-234.3 115.96,-867.13 244.24,-1137.28 161.51,-340.1 264.24,-431.15 446.73,-680.88 247.82,-339.13 668.89,-523.52 985.56,-705.78l187.94 -93.94c417.63,-181.81 641.78,-223.75 1032.22,-377.2 150.55,-59.16 254.53,-95.8 414.82,-148.94l2087.54 -731.27c159.65,-53.23 264.71,-88.13 415.29,-148.47 141.37,-56.67 274.86,-95.28 394.62,-169.15l338.26 -225.52c101.99,-80.92 140.3,-190.56 207.09,-286.24 3.62,-5.18 12.75,-15.33 15.77,-19.45 3.03,-4.11 10.85,-12.65 16.3,-18.93zm-10182.46 -6484.22l0 1339.13c76.32,51.13 117.29,105.73 246.63,105.73l2853.91 0c375.83,0 177.99,-303.41 435.8,-1079.45 176.69,-531.87 525.58,-1020.82 987.32,-1303.11 500.96,-306.27 1262.31,-437.19 1888.82,-436.67 483.85,0.4 950.97,-29.86 1389.31,55.27 606.04,117.7 1152.31,314.94 1596.42,693.89 902.28,769.89 784.25,1532.35 784.25,2633.9 0,408.07 -282.66,884.06 -507.18,1184.25 -280.4,374.9 -974.88,696.99 -1399.74,855.36l-1277.09 449.43c-299.61,99.22 -556.63,202.21 -846.6,316.17l-2112.78 741.27c-725.47,241.91 -1343.71,387.5 -1995.62,823.22l-326.13 237.64c-367.69,335.25 -539.73,477.15 -822.42,904.2l-413.99 748.87c-199.75,405.38 -445.67,1258.32 -445.67,1844.86l0 2466.82c0,677.93 280.96,1575.95 575.01,2138.39 152.15,291.04 375.95,520.06 596.44,742.57l661.19 536.86c48.77,34.16 53.92,45.47 98.57,77.61 56.53,40.71 129.3,78.87 197.04,120.08 712.95,433.79 1431.02,660.96 2243.35,822.12 1871.04,371.2 4108.36,305.18 5876.88,-283.73 541.3,-180.25 941.47,-386.72 1413.81,-700.34 76.26,-50.65 129.57,-89.78 205.5,-146.86l560.84 -496.25c182.27,-181.88 337.75,-372.91 465.89,-591.23 405.91,-691.51 670.36,-1540.27 670.36,-2536.39l0 -11875.99c0,-824.22 -291.24,-1631.78 -597.96,-2150.67 -128.54,-217.43 -395.54,-616.05 -572.76,-801.5 -91.97,-96.24 -240.25,-255.7 -337.68,-331.82 -726.69,-567.81 -1253.87,-888.5 -2303.85,-1149.26 -2344.91,-582.35 -6633.92,-575.93 -8510.69,1305.63 -500.92,502.19 -810.28,898.64 -1052.55,1625.51 -99.89,299.72 -224.62,739.94 -224.62,1114.46z"/>
 </g>
</svg>
