<svg width="180" height="180" viewBox="0 0 280 280" fill="none" xmlns="http://www.w3.org/2000/svg">
    <path fill-rule="evenodd" clip-rule="evenodd" d="M154.708 138.963C154.541 140.025 153.894 140.953 152.951 141.482C152.014 142.083 151.194 142.383 150.364 142.684C148.597 143.289 146.737 143.895 144.77 144.597C142.696 145.3 140.836 146.002 139.176 146.511C137.107 147.214 135.14 147.819 133.27 148.522C131.864 149.119 130.543 149.898 129.341 150.838C128.223 151.843 127.248 152.994 126.441 154.258C125.612 155.664 125.089 157.476 125.089 159.588C125.089 163.818 126.124 167.035 128.199 169.046C130.268 171.163 134.105 172.166 139.791 172.166C145.59 172.166 149.524 171.061 151.604 168.847C153.668 166.633 154.703 163.517 154.703 159.496V138.963H154.708ZM139.799 94.3848C149.952 94.3848 157.406 96.2986 162.165 100.223C166.929 104.051 169.311 108.973 169.311 114.807V164.517C169.311 166.528 168.901 168.742 168.178 171.155C167.446 173.577 166.001 175.787 163.722 177.793C161.55 179.813 158.548 181.523 154.716 182.831C150.884 184.14 145.915 184.842 139.804 184.842C133.703 184.842 128.724 184.14 124.897 182.831C121.07 181.523 118.064 179.813 115.892 177.793C113.871 175.985 112.34 173.703 111.44 171.155C110.708 168.747 110.293 166.533 110.293 164.522V156.576C110.293 152.346 111.43 148.422 113.71 144.996C115.989 141.479 119.196 139.066 123.34 137.554C125.41 136.852 127.792 136.149 130.481 135.243C133.176 134.332 135.655 133.426 138.145 132.627C140.634 131.818 142.806 131.009 144.666 130.301C145.788 129.856 146.928 129.455 148.083 129.1L149.947 128.194C150.679 127.792 151.397 127.186 152.124 126.382C152.847 125.582 153.467 124.676 153.989 123.668C154.541 122.577 154.825 121.372 154.819 120.151V116.929C154.826 115.748 154.576 114.579 154.086 113.503C153.676 112.292 152.847 111.187 151.709 110.185C150.572 109.177 149.015 108.372 147.155 107.762C145.291 107.166 142.811 106.861 140.009 106.861C134.21 106.861 130.379 107.975 128.309 110.281C126.552 112.297 125.517 114.812 125.312 117.627C125.312 118.232 124.795 118.634 124.17 118.634L111.543 118.838C110.918 118.841 110.408 118.343 110.4 117.723V114.816C110.4 111.992 110.923 109.375 112.06 106.861C113.202 104.341 114.964 102.234 117.341 100.417C119.723 98.6097 122.833 97.1028 126.557 96.0951C130.184 94.8838 134.635 94.3848 139.809 94.3848H139.799Z" fill="#fff"></path>
</svg>