<svg xmlns="http://www.w3.org/2000/svg" xml:space="preserve" width="81.723mm" height="130.001mm" version="1.1" style="shape-rendering:geometricPrecision; text-rendering:geometricPrecision; image-rendering:optimizeQuality; fill-rule:evenodd; clip-rule:evenodd" viewBox="0 0 8163.782 12986.485" xmlns:xlink="http://www.w3.org/1999/xlink" xmlns:xodm="http://www.corel.com/coreldraw/odm/2003"><defs><style type="text/css">
    .fil0 {fill:black}
   </style></defs><g id="Camada_x0020_1"><metadata id="CorelCorpID_0Corel-Layer"/><path class="fil0" d="m6112.258 6524.904 21.148 2982.686c0 302.832 -61.306 571.082 -145.08 785.662 -76.007 194.687 -232.882 425.023 -396.018 534.675 -441.387 296.679 -958.66 371.971 -1510.426 371.971 -404.056 0 -865.12 -56.678 -1156.787 -175.67 -314.309 -128.236 -578.171 -333.938 -701.629 -652.083 -33.195 -85.563 -67.993 -152.836 -91.998 -246.448 -102.605 -400.082 -54.883 -409.416 -92.904 -753.655 -15.535 -140.644 69.608 -520.515 146.611 -682.679 96.95 -204.153 158.616 -258.808 268.16 -408.714 148.76 -203.571 401.517 -314.255 591.605 -423.661l112.815 -56.39c250.692 -109.136 385.243 -134.311 619.614 -226.423 90.371 -35.512 152.788 -57.506 249.005 -89.405l1253.094 -438.962c95.834 -31.953 158.898 -52.902 249.287 -89.123 84.861 -34.017 164.991 -57.194 236.88 -101.536l203.048 -135.374c61.222 -48.574 84.218 -114.388 124.311 -171.822 2.173 -3.109 7.653 -9.202 9.466 -11.675 1.819 -2.467 6.513 -7.593 9.784 -11.363zM0 2632.6V3436.444c45.813 30.692 70.406 63.467 148.045 63.467h1713.126c225.601 0 106.843 -182.129 261.599 -647.965 106.062 -319.267 315.492 -612.771 592.662 -782.222 300.713 -183.846 757.731 -262.433 1133.808 -262.121 290.442 0.24 570.842 -17.924 833.966 33.177 363.79 70.652 691.701 189.05 958.288 416.524 541.615 462.144 470.764 919.829 470.764 1581.06 0 244.954 -169.673 530.678 -304.447 710.874 -168.317 225.042 -585.194 418.384 -840.226 513.45L4200.982 5332.467c-179.848 59.559 -334.13 121.381 -508.191 189.788l-1268.245 444.965c-435.48 145.212 -806.593 232.606 -1197.917 494.157l-195.767 142.649c-220.714 201.242 -323.985 286.42 -493.677 542.767l-248.507 449.527c-119.905 243.339 -267.524 755.336 -267.524 1107.42v1480.766c0 406.943 168.653 946.001 345.163 1283.618 91.332 174.704 225.673 312.178 358.027 445.745l396.895 322.263c29.275 20.505 32.367 27.294 59.169 46.587 33.933 24.437 77.615 47.344 118.278 72.081 427.965 260.393 859.003 396.757 1346.623 493.497 1123.135 222.821 2466.139 183.191 3527.734 -170.316 324.928 -108.199 565.139 -232.138 848.672 -420.395 45.777 -30.404 77.777 -53.893 123.356 -88.156l336.657 -297.886c109.412 -109.178 202.742 -223.848 279.661 -354.9 243.657 -415.095 402.399 -924.583 402.399 -1522.527V2865.278c0 -494.757 -174.824 -979.514 -358.939 -1290.99 -77.159 -130.517 -237.432 -369.798 -343.813 -481.119 -55.207 -57.77 -144.216 -153.49 -202.7 -199.183 -436.213 -340.841 -752.665 -533.343 -1382.94 -689.87 -1407.587 -349.569 -3982.165 -345.715 -5108.739 783.735 -300.689 301.451 -486.389 539.43 -631.818 975.75C74.878 2143.516 0.006 2407.768 0.006 2632.582z"/></g></svg>